HIERARCHY
ROOT Hips
{
	OFFSET 0.00000 0.00000 0.00000
	CHANNELS 6 Xposition Yposition Zposition Zrotation Yrotation Xrotation 
	JOINT LHipJoint
	{
		OFFSET 0 0 0
		CHANNELS 3 Zrotation Yrotation Xrotation
		JOINT LeftUpLeg
		{
			OFFSET 1.76014 -1.80163 0.38499
			CHANNELS 3 Zrotation Yrotation Xrotation
			JOINT LeftLeg
			{
				OFFSET 2.46817 -6.78126 0.00000
				CHANNELS 3 Zrotation Yrotation Xrotation
				JOINT LeftFoot
				{
					OFFSET 2.79348 -7.67503 0.00000
					CHANNELS 3 Zrotation Yrotation Xrotation
					JOINT LeftToeBase
					{
						OFFSET 0.09421 -0.25885 1.91403
						CHANNELS 3 Zrotation Yrotation Xrotation
						End Site
						{
							OFFSET 0.00000 -0.00000 0.97975
						}
					}
				}
			}
		}
	}
	JOINT RHipJoint
	{
		OFFSET 0 0 0
		CHANNELS 3 Zrotation Yrotation Xrotation
		JOINT RightUpLeg
		{
			OFFSET -1.77926 -1.80163 0.38499
			CHANNELS 3 Zrotation Yrotation Xrotation
			JOINT RightLeg
			{
				OFFSET -2.51996 -6.92353 0.00000
				CHANNELS 3 Zrotation Yrotation Xrotation
				JOINT RightFoot
				{
					OFFSET -2.76109 -7.58603 0.00000
					CHANNELS 3 Zrotation Yrotation Xrotation
					JOINT RightToeBase
					{
						OFFSET -0.08067 -0.22163 1.86812
						CHANNELS 3 Zrotation Yrotation Xrotation
						End Site
						{
							OFFSET -0.00000 -0.00000 0.95558
						}
					}
				}
			}
		}
	}
	JOINT LowerBack
	{
		OFFSET 0 0 0
		CHANNELS 3 Zrotation Yrotation Xrotation
		JOINT Spine
		{
			OFFSET 0.05537 1.92033 -0.03713
			CHANNELS 3 Zrotation Yrotation Xrotation
			JOINT Spine1
			{
				OFFSET 0.04452 1.90073 0.10860
				CHANNELS 3 Zrotation Yrotation Xrotation
				JOINT Neck
				{
					OFFSET 0 0 0
					CHANNELS 3 Zrotation Yrotation Xrotation
					JOINT Neck1
					{
						OFFSET 0.00903 1.74649 0.02074
						CHANNELS 3 Zrotation Yrotation Xrotation
						JOINT Head
						{
							OFFSET -0.08608 1.67844 -0.12081
							CHANNELS 3 Zrotation Yrotation Xrotation
							End Site
							{
								OFFSET -0.03521 1.83380 -0.05059
							}
						}
					}
				}
				JOINT LeftShoulder
				{
					OFFSET 0 0 0
					CHANNELS 3 Zrotation Yrotation Xrotation
					JOINT LeftArm
					{
						OFFSET 3.28197 0.84325 -0.19106
						CHANNELS 3 Zrotation Yrotation Xrotation
						JOINT LeftForeArm
						{
							OFFSET 5.24318 -0.00000 -0.00000
							CHANNELS 3 Zrotation Yrotation Xrotation
							JOINT LeftHand
							{
								OFFSET 2.98999 -0.00000 0.00000
								CHANNELS 3 Zrotation Yrotation Xrotation
								JOINT LeftFingerBase
								{
									OFFSET 0 0 0
									CHANNELS 3 Zrotation Yrotation Xrotation
									JOINT LeftHandIndex1
									{
										OFFSET 0.72674 -0.00000 0.00000
										CHANNELS 3 Zrotation Yrotation Xrotation
										End Site
										{
											OFFSET 0.58592 -0.00000 0.00000
										}
									}
								}
								JOINT LThumb
								{
									OFFSET 0 0 0
									CHANNELS 3 Zrotation Yrotation Xrotation
									End Site
									{
										OFFSET 0.59487 -0.00000 0.59487
									}
								}
							}
						}
					}
				}
				JOINT RightShoulder
				{
					OFFSET 0 0 0
					CHANNELS 3 Zrotation Yrotation Xrotation
					JOINT RightArm
					{
						OFFSET -3.30963 0.78377 0.14264
						CHANNELS 3 Zrotation Yrotation Xrotation
						JOINT RightForeArm
						{
							OFFSET -5.37045 -0.00000 0.00000
							CHANNELS 3 Zrotation Yrotation Xrotation
							JOINT RightHand
							{
								OFFSET -2.92792 -0.00000 0.00000
								CHANNELS 3 Zrotation Yrotation Xrotation
								JOINT RightFingerBase
								{
									OFFSET 0 0 0
									CHANNELS 3 Zrotation Yrotation Xrotation
									JOINT RightHandIndex1
									{
										OFFSET -0.78450 -0.00000 0.00000
										CHANNELS 3 Zrotation Yrotation Xrotation
										End Site
										{
											OFFSET -0.63248 -0.00000 0.00000
										}
									}
								}
								JOINT RThumb
								{
									OFFSET 0 0 0
									CHANNELS 3 Zrotation Yrotation Xrotation
									End Site
									{
										OFFSET -0.64214 -0.00000 0.64214
									}
								}
							}
						}
					}
				}
			}
		}
	}
}
MOTION
Frames: 10
Frame Time: .0083333
-0.366 18.1427 0.8158 0 0 0 0 0 0 -21 0 0 0 0 0 0 0 0 0 0 0 0 0 0 21 0 0 0 0 0 0 0 0 0 0 0 0 0 0 0 0 0 0 0 0 0 0 -16 0 0 21 0 0 11 0 0 0 -8 0 0 0 0 0 0 0 0 0 0 0 0 0 0 0 0 0 0 0 0 8 0 0 0 0 0 0 0 0 0 0 0 0 0 0 0 0 0
-0.3660 18.1427 0.8158 -2.4204 -2.9281 9.4652 0.0000 0.0000 0.0000 -13.2133 -12.9124 -9.3080 1.2052 6.9648 19.6110 -0.0640 10.5989 -14.0611 0.9040 -6.0592 -16.9562 0.0000 0.0000 0.0000 23.3442 11.1523 -9.1274 -0.7780 -5.6317 15.7194 0.0942 -10.5151 -13.4029 -0.0213 0.9431 -2.5923 -0.0578 -0.4721 -0.7532 2.8871 -0.5805 -2.6018 3.0075 -0.2572 -2.2175 3.6545 -1.7464 -8.3567 -9.1385 -2.0786 5.8743 -3.4725 -1.3447 2.9724 0.0000 0.0000 0.0000 -78.0585 8.4736 44.3995 16.7943 -26.5858 -3.9948 -0.0000 -0.0000 12.1296 -1.3795 11.4848 -0.2747 -7.1250 0.0000 -0.0000 -24.7224 40.1335 3.1930 0.0000 0.0000 0.0000 82.0095 -12.0097 20.4723 -22.4887 33.5249 -6.8538 0.0000 0.0000 31.5234 2.4000 16.8111 0.6945 7.1250 -0.0000 -0.0000 19.8448 -13.8071 15.5147
-0.3592 18.1440 0.8083 -2.4677 -2.9627 9.6025 0.0000 0.0000 0.0000 -13.1494 -13.0608 -9.5037 1.2211 7.0090 19.7420 -0.0607 10.6487 -14.1935 0.8723 -5.9547 -16.6531 0.0000 0.0000 0.0000 23.3492 11.1568 -9.2572 -0.7668 -5.5916 15.6040 0.1267 -10.6720 -13.0607 -0.0591 1.5687 -4.3152 0.0402 -0.4872 -0.8475 2.9221 -0.6008 -2.6160 2.9878 -0.2692 -2.1786 3.6264 -1.7612 -8.3317 -9.1548 -2.1015 5.7573 -3.4718 -1.3548 2.9320 0.0000 -0.0000 0.0000 -78.1155 8.4469 44.8509 16.9950 -26.8512 -4.0851 -0.0000 -0.0000 12.3465 -1.2329 11.4931 -0.2457 -7.1250 0.0000 -0.0000 -24.6056 40.1542 3.1620 0.0000 -0.0000 0.0000 81.9544 -11.9609 20.4571 -22.3977 33.4235 -6.8036 0.0000 0.0000 31.1428 2.2423 16.7760 0.6475 7.1250 -0.0000 -0.0000 19.7488 -13.8365 15.4160
-0.3517 18.1441 0.7999 -2.5861 -3.0190 9.6533 0.0000 0.0000 0.0000 -13.0311 -13.1430 -9.5145 1.2148 6.9917 19.6908 -0.0645 10.7256 -14.2461 0.8346 -5.8278 -16.2855 0.0000 0.0000 0.0000 23.4357 11.1905 -9.3520 -0.7687 -5.5986 15.6241 0.1259 -10.6515 -13.0398 -0.0581 1.5550 -4.2774 0.2196 -0.4881 -0.7536 2.9717 -0.5971 -2.6695 2.9397 -0.2695 -2.2881 3.6256 -1.7790 -8.3329 -9.1978 -2.1211 5.7795 -3.4861 -1.3668 2.9371 -0.0000 -0.0000 0.0000 -78.1543 8.5456 45.3164 17.2450 -27.1797 -4.1987 -0.0000 -0.0000 12.5081 -1.1084 11.3116 -0.2174 -7.1250 0.0000 -0.0000 -24.4410 40.0002 3.2379 -0.0000 -0.0000 0.0000 81.8937 -12.0645 20.5412 -22.3852 33.4096 -6.7967 0.0000 0.0000 30.7261 2.0523 16.5473 0.5847 7.1250 -0.0000 -0.0000 19.6497 -14.0474 15.2340
-0.3437 18.1450 0.7945 -2.4774 -3.1418 9.6312 0.0000 0.0000 0.0000 -13.2071 -13.1867 -9.4415 1.2102 6.9789 19.6528 -0.0812 10.9085 -14.2497 0.8532 -5.8909 -16.4683 0.0000 0.0000 0.0000 23.2723 11.2294 -9.3629 -0.7698 -5.6026 15.6357 0.1145 -10.5643 -13.1092 -0.0416 1.3165 -3.6201 0.1713 -0.4896 -0.6848 2.9486 -0.5986 -2.6682 2.9437 -0.2693 -2.3252 3.6254 -1.7782 -8.3177 -9.2061 -2.1212 5.7501 -3.4879 -1.3664 2.9258 -0.0000 0.0000 0.0000 -78.1858 8.6866 45.7354 17.5986 -27.6401 -4.3614 -0.0000 -0.0000 12.5478 -1.1206 11.3247 -0.2201 -7.1250 0.0000 -0.0000 -24.4555 40.0110 3.2331 -0.0000 0.0000 0.0000 81.8602 -12.0762 20.6058 -22.3373 33.3561 -6.7704 0.0000 0.0000 30.3302 1.9496 16.3731 0.5498 7.1250 -0.0000 -0.0000 19.6007 -14.2091 15.1187
-0.3374 18.1477 0.7903 -2.2919 -3.2597 9.6515 0.0000 0.0000 0.0000 -13.4542 -13.2551 -9.4059 1.2056 6.9661 19.6148 -0.0952 11.0603 -14.2518 0.8636 -5.9259 -16.5694 0.0000 0.0000 0.0000 23.0188 11.2977 -9.3906 -0.7685 -5.5978 15.6219 0.1092 -10.5062 -13.1140 -0.0320 1.1556 -3.1770 0.0340 -0.4841 -0.6837 2.8924 -0.5930 -2.6810 2.9631 -0.2640 -2.3384 3.6356 -1.7767 -8.2828 -9.1824 -2.1225 5.7372 -3.4817 -1.3648 2.9161 0.0000 -0.0000 0.0000 -78.1877 8.8450 46.1934 17.9900 -28.1444 -4.5445 -0.0000 -0.0000 12.5683 -1.1446 11.5472 -0.2292 -7.1250 0.0000 -0.0000 -24.5522 40.2114 3.1166 0.0000 -0.0000 0.0000 81.9126 -12.0732 20.4325 -22.2617 33.2715 -6.7288 0.0000 0.0000 30.1691 1.9141 16.3627 0.5394 7.1250 -0.0000 -0.0000 19.5791 -14.2182 15.0958
-0.3322 18.1485 0.7848 -2.2777 -3.3181 9.6529 0.0000 0.0000 0.0000 -13.4940 -13.2968 -9.3679 1.2005 6.9518 19.5727 -0.1040 11.1496 -14.2436 0.8594 -5.9116 -16.5281 0.0000 0.0000 0.0000 22.9795 11.3128 -9.3986 -0.7662 -5.5896 15.5983 0.1167 -10.5314 -13.0133 -0.0386 1.2679 -3.4862 0.0416 -0.4927 -0.6223 2.9055 -0.6024 -2.7109 2.9736 -0.2681 -2.4033 3.5846 -1.7869 -8.2669 -9.1403 -2.1287 5.8036 -3.4613 -1.3682 2.9340 -0.0000 0.0000 0.0000 -78.2299 9.0242 46.5944 18.3438 -28.5952 -4.7126 -0.0000 -0.0000 12.7243 -1.1731 11.6466 -0.2369 -7.1250 0.0000 -0.0000 -24.6102 40.2993 3.0674 -0.0000 0.0000 0.0000 81.9262 -12.1193 20.2245 -22.1923 33.1937 -6.6908 0.0000 0.0000 30.0005 1.9826 16.4250 0.5608 7.1250 -0.0000 -0.0000 19.6169 -14.1610 15.1544
-0.3268 18.1484 0.7807 -2.3919 -3.3761 9.6864 0.0000 0.0000 0.0000 -13.3830 -13.3590 -9.3866 1.2022 6.9565 19.5864 -0.1065 11.2134 -14.3035 0.8714 -5.9517 -16.6444 0.0000 0.0000 0.0000 23.0782 11.3366 -9.3904 -0.7581 -5.5609 15.5154 0.1168 -10.4918 -12.9460 -0.0399 1.2888 -3.5439 0.1951 -0.4864 -0.7124 2.9485 -0.5949 -2.6634 2.9298 -0.2681 -2.3051 3.5222 -1.7911 -8.2724 -9.1102 -2.1326 5.7561 -3.4414 -1.3695 2.9215 -0.0000 -0.0000 0.0000 -78.2619 9.0368 47.0276 18.6430 -28.9727 -4.8567 -0.0000 -0.0000 12.7896 -1.0715 11.5533 -0.2146 -7.1250 0.0000 -0.0000 -24.4944 40.2235 3.1002 -0.0000 -0.0000 0.0000 81.9379 -12.0672 20.0459 -22.1465 33.1422 -6.6658 0.0000 0.0000 29.7852 2.0668 16.3454 0.5819 7.1250 -0.0000 -0.0000 19.6774 -14.2380 15.1730
-0.3208 18.1481 0.7752 -2.5332 -3.4497 9.7600 0.0000 0.0000 0.0000 -13.2352 -13.4333 -9.4572 1.2073 6.9708 19.6288 -0.1118 11.3267 -14.3956 0.8843 -5.9946 -16.7688 0.0000 0.0000 0.0000 23.1909 11.4065 -9.4186 -0.7479 -5.5240 15.4095 0.1207 -10.4771 -12.8481 -0.0421 1.3247 -3.6426 0.3685 -0.4682 -0.8554 2.9867 -0.5733 -2.6054 2.8691 -0.2617 -2.1673 3.5644 -1.7827 -8.2614 -9.1314 -2.1312 5.6579 -3.4533 -1.3668 2.8897 0.0000 0.0000 0.0000 -78.2495 9.0129 47.5465 18.9508 -29.3575 -5.0067 -0.0000 -0.0000 12.6570 -0.6716 11.2655 -0.1312 -7.1250 0.0000 -0.0000 -24.0682 39.9969 3.1833 0.0000 0.0000 0.0000 82.0071 -11.9564 19.7792 -22.0646 33.0500 -6.6210 0.0000 0.0000 29.7082 2.0790 16.2625 0.5824 7.1250 -0.0000 -0.0000 19.6928 -14.3165 15.1513
-0.3162 18.1492 0.7685 -2.6182 -3.5143 9.8225 0.0000 0.0000 0.0000 -13.1393 -13.5226 -9.5163 1.2110 6.9810 19.6590 -0.1139 11.4080 -14.4916 0.8530 -5.8901 -16.4659 0.0000 0.0000 0.0000 23.2492 11.4657 -9.4477 -0.7383 -5.4893 15.3096 0.1256 -10.4903 -12.7762 -0.0491 1.4301 -3.9329 0.4512 -0.4625 -0.8672 3.0240 -0.5645 -2.6263 2.8612 -0.2584 -2.1830 3.5973 -1.7750 -8.1407 -9.1458 -2.1284 5.5585 -3.4597 -1.3608 2.8398 -0.0000 -0.0000 0.0000 -78.2932 9.1164 47.9297 19.2711 -29.7542 -5.1647 -0.0000 -0.0000 12.5163 -0.4404 11.0561 -0.0845 -7.1250 0.0000 -0.0000 -23.8083 39.8257 3.2521 -0.0000 -0.0000 0.0000 82.0677 -11.9298 19.5092 -21.9510 32.9216 -6.5592 0.0000 0.0000 29.7127 2.0328 16.1832 0.5668 7.1250 -0.0000 -0.0000 19.6709 -14.3901 15.0990
